<?xml version="1.0" encoding="UTF-8" standalone="no"?>
<!-- Created with Inkscape (http://www.inkscape.org/) -->

<svg
   xmlns:dc="http://purl.org/dc/elements/1.1/"
   xmlns:cc="http://creativecommons.org/ns#"
   xmlns:rdf="http://www.w3.org/1999/02/22-rdf-syntax-ns#"
   xmlns:svg="http://www.w3.org/2000/svg"
   xmlns="http://www.w3.org/2000/svg"
   xmlns:sodipodi="http://sodipodi.sourceforge.net/DTD/sodipodi-0.dtd"
   xmlns:inkscape="http://www.inkscape.org/namespaces/inkscape"
   width="723.37665"
   height="270.37466"
   viewBox="0 0 191.3934 71.536632"
   version="1.1"
   id="svg8"
   inkscape:version="0.92.1 r15371"
   sodipodi:docname="logo-horizontal.svg">
  <defs
     id="defs2">
    <clipPath
       id="clipPath26"
       clipPathUnits="userSpaceOnUse">
      <path
         inkscape:connector-curvature="0"
         id="path24"
         d="M 0,841.89 H 1190.55 V 0 H 0 Z" />
    </clipPath>
  </defs>
  <sodipodi:namedview
     id="base"
     pagecolor="#ffffff"
     bordercolor="#666666"
     borderopacity="1.0"
     inkscape:pageopacity="0.0"
     inkscape:pageshadow="2"
     inkscape:zoom="0.49497475"
     inkscape:cx="466.52296"
     inkscape:cy="204.02109"
     inkscape:document-units="px"
     inkscape:current-layer="layer1"
     showgrid="false"
     units="px"
     fit-margin-top="20"
     fit-margin-left="50"
     fit-margin-right="50"
     fit-margin-bottom="20"
     inkscape:window-width="1366"
     inkscape:window-height="705"
     inkscape:window-x="-8"
     inkscape:window-y="-8"
     inkscape:window-maximized="1" />
  <metadata
     id="metadata5">
    <rdf:RDF>
      <cc:Work
         rdf:about="">
        <dc:format>image/svg+xml</dc:format>
        <dc:type
           rdf:resource="http://purl.org/dc/dcmitype/StillImage" />
        <dc:title></dc:title>
      </cc:Work>
    </rdf:RDF>
  </metadata>
  <g
     inkscape:label="Camada 1"
     inkscape:groupmode="layer"
     id="layer1"
     transform="translate(-159.19922,-196.80476)">
    <g
       id="g582">
      <g
         transform="matrix(0.35277777,0,0,-0.35277777,203.39592,227.87743)"
         id="g60">
        <path
           inkscape:connector-curvature="0"
           id="path62"
           style="fill:#201d1d;fill-opacity:1;fill-rule:evenodd;stroke:none"
           d="m 0,0 40.505,-23.387 c 0.686,-0.374 1.162,-1.1 1.151,-1.938 v -48.094 c 0,-0.425 -0.403,-1.476 -1.017,-1.867 l -0.006,-0.005 -41.66,-24.053 c -0.354,-0.201 -0.762,-0.357 -1.209,-0.357 -0.475,0 -0.888,0.183 -1.279,0.413 -27.747,16.005 -55.481,32.021 -83.227,48.027 l -0.006,0.011 c -0.62,0.391 -1.034,1.084 -1.034,1.871 v 96.177 c 0,0.894 0.525,1.659 1.286,2.006 l 41.487,23.968 0.034,0.023 0.012,0.005 c 0.317,0.179 0.682,0.28 1.072,0.28 0.397,0 0.772,-0.106 1.09,-0.291 h 0.006 l 0.005,-0.005 41.64,-24.042 c 0.687,-0.375 1.162,-1.1 1.15,-1.939 z" />
      </g>
      <g
         transform="matrix(0.35277777,0,0,-0.35277777,189.48325,236.8116)"
         id="g64">
        <path
           inkscape:connector-curvature="0"
           id="path66"
           style="fill:#ff9955;fill-opacity:1;fill-rule:nonzero;stroke:none"
           d="m 0,0 30.96,-17.872 6.241,-3.605 5.992,3.46 L 74.404,0 37.201,21.476 Z" />
      </g>
      <g
         transform="matrix(0.35277777,0,0,-0.35277777,188.70054,238.17208)"
         id="g68">
        <path
           inkscape:connector-curvature="0"
           id="path70"
           style="fill:#ff9955;fill-opacity:1;fill-rule:nonzero;stroke:none"
           d="m 0,0 v -42.964 l 37.186,-21.459 v 42.952 z" />
      </g>
      <g
         transform="matrix(0.35277777,0,0,-0.35277777,216.51382,238.17208)"
         id="g72">
        <path
           inkscape:connector-curvature="0"
           id="path74"
           style="fill:#ff9955;fill-opacity:1;fill-rule:nonzero;stroke:none"
           d="M 0,0 -37.185,-21.471 V -64.423 L 0,-42.964 Z" />
      </g>
      <g
         transform="matrix(0.35277777,0,0,-0.35277777,174.78854,211.36648)"
         id="g76">
        <path
           inkscape:connector-curvature="0"
           id="path78"
           style="fill:#ff9955;fill-opacity:1;fill-rule:nonzero;stroke:none"
           d="m 0,0 30.959,-17.877 6.242,-3.599 5.99,3.455 L 74.402,0 37.201,21.477 Z" />
      </g>
      <g
         transform="matrix(0.35277777,0,0,-0.35277777,174.00583,212.72866)"
         id="g80">
        <path
           inkscape:connector-curvature="0"
           id="path82"
           style="fill:#ff9955;fill-opacity:1;fill-rule:nonzero;stroke:none"
           d="m 0,0 v -42.957 l 37.184,-21.459 v 42.952 z" />
      </g>
      <g
         transform="matrix(0.35277777,0,0,-0.35277777,201.81876,212.72866)"
         id="g84">
        <path
           inkscape:connector-curvature="0"
           id="path86"
           style="fill:#ff9955;fill-opacity:1;fill-rule:nonzero;stroke:none"
           d="M 0,0 -37.186,-21.464 V -64.416 L 0,-42.957 Z" />
      </g>
      <g
         transform="matrix(0.35277777,0,0,-0.35277777,174.00583,229.6906)"
         id="g88">
        <path
           inkscape:connector-curvature="0"
           id="path90"
           style="fill:#ff9955;fill-opacity:1;fill-rule:nonzero;stroke:none"
           d="m 0,0 v -42.959 l 37.184,-21.465 v 42.953 z" />
      </g>
      <g
         transform="matrix(0.35277777,0,0,-0.35277777,280.72004,231.57609)"
         id="g92">
        <path
           inkscape:connector-curvature="0"
           id="path94"
           style="fill:#1a1a1a;fill-opacity:1;fill-rule:evenodd;stroke:none"
           d="m 0,0 v 0 c 11.551,0 20.896,-9.345 20.896,-20.859 0,-11.558 -9.345,-20.903 -20.896,-20.903 -11.518,0 -20.861,9.345 -20.861,20.903 C -20.861,-9.345 -11.518,0 0,0 m 119.768,0 v 0 c 11.513,0 20.858,-9.345 20.858,-20.859 0,-11.558 -9.345,-20.903 -20.858,-20.903 -11.557,0 -20.903,9.345 -20.903,20.903 C 98.865,-9.345 108.211,0 119.768,0 M 84.68,-41.762 v 0 H 71.5 c -11.514,0 -20.859,9.345 -20.859,20.903 C 50.641,-9.345 59.986,0 71.5,0 V 19.937 C 56.109,19.937 42.719,11.431 35.748,-1.17 28.822,11.431 15.391,19.937 0,19.937 c -22.531,0 -40.805,-18.273 -40.805,-40.796 0,-7.638 2.087,-14.766 5.716,-20.903 -11.22,0.333 -20.274,9.557 -20.274,20.903 v 64.2 L -75.258,31.854 V 5.13 c -7.513,9.056 -18.817,14.807 -31.459,14.807 -7.633,0 -14.765,-2.085 -20.896,-5.751 v 29.155 l -19.901,-11.487 v -52.713 c 0,-22.566 18.273,-40.84 40.797,-40.84 15.688,0 29.287,8.838 36.131,21.818 6.842,-12.98 20.437,-21.818 36.124,-21.818 H 0 c 15.391,0 28.822,8.551 35.748,21.149 6.971,-12.598 20.361,-21.149 35.752,-21.149 h 47.472 v 0.036 c 0.253,0 0.5,-0.036 0.796,-0.036 22.525,0 40.796,18.274 40.796,40.84 0,22.523 -18.271,40.796 -40.796,40.796 -22.573,0 -40.846,-18.273 -40.846,-40.796 0,-7.638 2.092,-14.766 5.758,-20.903 M -106.717,0 c 11.516,0 20.902,-9.345 20.902,-20.859 0,-11.558 -9.386,-20.903 -20.902,-20.903 -11.509,0 -20.896,9.345 -20.896,20.903 0,11.514 9.387,20.859 20.896,20.859" />
      </g>
    </g>
  </g>
</svg>
