<?xml version="1.0" encoding="UTF-8" standalone="no"?>
<!-- Created with Inkscape (http://www.inkscape.org/) -->

<svg
   xmlns:dc="http://purl.org/dc/elements/1.1/"
   xmlns:cc="http://creativecommons.org/ns#"
   xmlns:rdf="http://www.w3.org/1999/02/22-rdf-syntax-ns#"
   xmlns:svg="http://www.w3.org/2000/svg"
   xmlns="http://www.w3.org/2000/svg"
   xmlns:sodipodi="http://sodipodi.sourceforge.net/DTD/sodipodi-0.dtd"
   xmlns:inkscape="http://www.inkscape.org/namespaces/inkscape"
   width="774.38269"
   height="608.01178"
   viewBox="0 0 204.88875 160.86979"
   version="1.1"
   id="svg8"
   inkscape:version="0.92.0 r15299"
   sodipodi:docname="mepassai.svg">
  <defs
     id="defs2" />
  <sodipodi:namedview
     id="base"
     pagecolor="#ffffff"
     bordercolor="#666666"
     borderopacity="1.0"
     inkscape:pageopacity="0.0"
     inkscape:pageshadow="2"
     inkscape:zoom="0.49497475"
     inkscape:cx="62.10582"
     inkscape:cy="57.537876"
     inkscape:document-units="px"
     inkscape:current-layer="layer1"
     showgrid="false"
     inkscape:pagecheckerboard="true"
     units="px"
     fit-margin-top="0"
     fit-margin-left="0"
     fit-margin-right="0"
     fit-margin-bottom="0"
     inkscape:window-width="1920"
     inkscape:window-height="1017"
     inkscape:window-x="-8"
     inkscape:window-y="-8"
     inkscape:window-maximized="1" />
  <metadata
     id="metadata5">
    <rdf:RDF>
      <cc:Work
         rdf:about="">
        <dc:format>image/svg+xml</dc:format>
        <dc:type
           rdf:resource="http://purl.org/dc/dcmitype/StillImage" />
        <dc:title></dc:title>
      </cc:Work>
    </rdf:RDF>
  </metadata>
  <g
     inkscape:label="Layer 1"
     inkscape:groupmode="layer"
     id="layer1"
     transform="translate(-33.477916,-77.207289)" />
  <g
     inkscape:groupmode="layer"
     id="layer2"
     inkscape:label="Layer 2"
     sodipodi:insensitive="true"
     transform="translate(-33.477916,-44.790639)">
    <g
       id="g4507"
       transform="matrix(0.34785217,0,0,0.34785217,-76.130651,34.508815)">
      <g
         id="g4505">
        <g
           enable-background="new    "
           id="g4503">
          <path
             style="fill:#228bcb"
             inkscape:connector-curvature="0"
             d="m 387.04,417.456 c -3.002,7.42 -5.684,14.031 -8.043,19.831 -1.012,2.496 -1.991,4.925 -2.934,7.285 -0.945,2.36 -1.796,4.47 -2.555,6.323 -0.759,1.855 -1.375,3.355 -1.847,4.503 l -0.658,1.669 c -0.708,1.721 -1.459,3.356 -2.251,4.907 -0.793,1.552 -1.695,2.909 -2.707,4.072 -1.012,1.163 -2.15,2.091 -3.415,2.782 -1.264,0.691 -2.724,1.037 -4.376,1.037 -1.518,0 -2.85,-0.261 -3.996,-0.783 -1.147,-0.522 -2.201,-1.315 -3.162,-2.378 -0.961,-1.062 -1.864,-2.396 -2.707,-3.997 -0.844,-1.601 -1.687,-3.465 -2.53,-5.591 l -15.936,-39.459 v 48.263 c 0,1.012 -0.194,1.973 -0.581,2.883 -0.389,0.91 -0.92,1.695 -1.594,2.354 -0.675,0.657 -1.467,1.18 -2.377,1.567 -0.911,0.389 -1.872,0.582 -2.884,0.582 -1.011,0 -1.973,-0.193 -2.883,-0.582 -0.91,-0.388 -1.695,-0.91 -2.353,-1.567 -0.657,-0.658 -1.181,-1.443 -1.568,-2.354 -0.388,-0.91 -0.582,-1.871 -0.582,-2.883 v -46.694 c 0,-2.935 0.152,-5.607 0.456,-8.018 0.303,-2.411 0.918,-4.46 1.846,-6.147 0.927,-1.686 2.226,-2.992 3.895,-3.92 1.67,-0.928 3.871,-1.392 6.602,-1.392 1.956,0 3.668,0.338 5.135,1.012 1.467,0.675 2.833,1.763 4.097,3.263 1.265,1.501 2.496,3.449 3.693,5.843 1.196,2.396 2.504,5.296 3.92,8.701 l 13.507,32.631 h 0.405 l 13.659,-32.631 c 1.214,-2.899 2.403,-5.513 3.566,-7.841 1.164,-2.326 2.403,-4.301 3.719,-5.918 1.315,-1.619 2.748,-2.866 4.3,-3.744 1.551,-0.877 3.321,-1.315 5.312,-1.315 2.158,0 4.039,0.32 5.641,0.961 1.601,0.641 2.917,1.669 3.946,3.086 1.028,1.416 1.796,3.247 2.302,5.489 0.505,2.243 0.759,4.95 0.759,8.12 v 48.515 c 0,1.012 -0.195,1.973 -0.582,2.883 -0.388,0.91 -0.919,1.695 -1.593,2.354 -0.676,0.657 -1.467,1.18 -2.378,1.567 -0.911,0.389 -1.872,0.582 -2.884,0.582 -1.012,0 -1.973,-0.193 -2.883,-0.582 -0.911,-0.388 -1.695,-0.91 -2.353,-1.567 -0.658,-0.658 -1.181,-1.443 -1.568,-2.354 -0.388,-0.91 -0.582,-1.871 -0.582,-2.883 v -48.465 z"
             id="path4485" />
          <path
             style="fill:#228bcb"
             inkscape:connector-curvature="0"
             d="m 466.566,446.14 c 0,1.385 -0.455,2.412 -1.366,3.087 -0.911,0.674 -2.176,1.012 -3.794,1.012 h -31.315 c 0.169,4.08 1.341,7.243 3.517,9.484 2.175,2.243 5.488,3.364 9.94,3.364 1.45,0 2.808,-0.092 4.072,-0.277 1.265,-0.185 2.505,-0.438 3.719,-0.759 1.214,-0.321 2.429,-0.683 3.643,-1.088 1.214,-0.405 2.478,-0.826 3.794,-1.265 0.438,-0.169 0.826,-0.253 1.162,-0.253 1.113,0 2.008,0.43 2.684,1.29 0.672,0.86 1.01,1.863 1.01,3.011 0,0.674 -0.117,1.314 -0.354,1.921 -0.674,1.619 -1.787,2.961 -3.34,4.022 -1.551,1.062 -3.338,1.906 -5.361,2.53 -2.023,0.624 -4.166,1.054 -6.425,1.29 -2.26,0.234 -4.419,0.354 -6.476,0.354 -3.879,0 -7.496,-0.557 -10.852,-1.67 -3.356,-1.113 -6.266,-2.765 -8.726,-4.957 -2.462,-2.192 -4.394,-4.94 -5.792,-8.246 -1.4,-3.306 -2.1,-7.134 -2.1,-11.484 0,-3.643 0.674,-7.048 2.024,-10.219 1.348,-3.17 3.229,-5.919 5.641,-8.246 2.411,-2.327 5.278,-4.165 8.6,-5.515 3.321,-1.348 6.973,-2.023 10.953,-2.023 4.316,0 8.043,0.666 11.18,1.999 3.137,1.333 5.733,3.119 7.789,5.362 2.059,2.243 3.594,4.856 4.604,7.841 1.013,2.986 1.534,6.131 1.569,9.435 z m -13.507,-3.085 c -0.102,-1.788 -0.414,-3.44 -0.936,-4.958 -0.524,-1.519 -1.266,-2.833 -2.227,-3.946 -0.961,-1.112 -2.142,-1.98 -3.541,-2.605 -1.399,-0.623 -3.027,-0.936 -4.882,-0.936 -1.687,0 -3.213,0.328 -4.579,0.986 -1.365,0.657 -2.546,1.552 -3.541,2.682 -0.994,1.13 -1.771,2.445 -2.326,3.945 -0.557,1.501 -0.886,3.111 -0.986,4.832 z"
             id="path4487" />
          <path
             style="fill:#228bcb"
             inkscape:connector-curvature="0"
             d="m 525.199,432.329 c 0.842,-1.787 1.921,-3.355 3.236,-4.704 1.316,-1.349 2.766,-2.479 4.352,-3.391 1.584,-0.91 3.245,-1.593 4.982,-2.048 1.736,-0.456 3.467,-0.684 5.186,-0.684 3.103,0 5.901,0.691 8.398,2.075 2.495,1.383 4.629,3.263 6.398,5.64 1.771,2.378 3.129,5.177 4.073,8.398 0.943,3.221 1.416,6.67 1.416,10.345 0,3.812 -0.498,7.303 -1.491,10.473 -0.997,3.171 -2.396,5.894 -4.199,8.17 -1.806,2.276 -3.965,4.056 -6.476,5.337 -2.514,1.282 -5.304,1.923 -8.374,1.923 -3.775,0 -7.148,-0.877 -10.117,-2.63 -2.967,-1.754 -5.43,-4.217 -7.385,-7.388 v 18.213 c 0,3.204 -0.651,5.665 -1.949,7.386 -1.298,1.72 -3.448,2.58 -6.449,2.58 -2.834,0 -4.832,-0.86 -5.995,-2.58 -1.164,-1.721 -1.745,-4.182 -1.745,-7.386 v -49.729 c 0,-3.204 0.581,-5.666 1.745,-7.386 1.163,-1.721 3.161,-2.58 5.995,-2.58 3.001,0 5.151,0.859 6.449,2.58 1.299,1.72 1.95,4.182 1.95,7.386 z m 0.05,15.328 c 0,2.261 0.178,4.369 0.531,6.323 0.354,1.957 0.96,3.668 1.821,5.136 0.859,1.467 2.006,2.622 3.439,3.466 1.434,0.843 3.213,1.264 5.338,1.264 1.955,0 3.599,-0.412 4.933,-1.239 1.331,-0.825 2.402,-1.973 3.212,-3.439 0.81,-1.466 1.391,-3.195 1.744,-5.187 0.355,-1.988 0.531,-4.147 0.531,-6.475 0,-1.854 -0.135,-3.751 -0.403,-5.69 -0.271,-1.94 -0.776,-3.701 -1.518,-5.287 -0.741,-1.585 -1.771,-2.884 -3.087,-3.896 -1.314,-1.013 -3.035,-1.518 -5.159,-1.518 -2.124,0 -3.921,0.338 -5.388,1.012 -1.469,0.675 -2.648,1.704 -3.541,3.086 -0.895,1.384 -1.527,3.111 -1.896,5.185 -0.372,2.074 -0.557,4.495 -0.557,7.259 z"
             id="path4489" />
          <path
             style="fill:#228bcb"
             inkscape:connector-curvature="0"
             d="m 602.954,439.968 c 0,-2.833 -0.751,-4.839 -2.251,-6.02 -1.502,-1.18 -3.518,-1.771 -6.045,-1.771 -1.518,0 -2.936,0.084 -4.25,0.253 -1.316,0.169 -2.555,0.38 -3.719,0.633 -1.164,0.252 -2.268,0.514 -3.312,0.783 -1.047,0.271 -2.041,0.523 -2.986,0.759 -0.775,0.203 -1.467,0.304 -2.073,0.304 -1.114,0 -2.117,-0.361 -3.011,-1.087 -0.893,-0.726 -1.34,-1.729 -1.34,-3.011 0,-1.247 0.319,-2.344 0.961,-3.288 0.641,-0.943 1.51,-1.763 2.605,-2.454 1.096,-0.69 2.369,-1.264 3.819,-1.72 1.448,-0.455 2.976,-0.817 4.578,-1.088 1.603,-0.269 3.245,-0.462 4.933,-0.581 1.686,-0.118 3.305,-0.178 4.857,-0.178 3.237,0 6.204,0.362 8.904,1.088 2.697,0.727 5.015,1.932 6.955,3.617 1.939,1.688 3.457,3.896 4.553,6.627 1.095,2.732 1.645,6.088 1.645,10.068 v 20.235 c 0,1.314 -0.085,2.58 -0.254,3.794 -0.169,1.214 -0.506,2.293 -1.011,3.237 -0.507,0.944 -1.232,1.694 -2.177,2.251 -0.943,0.558 -2.192,0.835 -3.742,0.835 -2.429,0 -4.225,-0.8 -5.389,-2.403 -1.163,-1.601 -1.746,-3.886 -1.746,-6.854 -0.876,1.721 -1.947,3.205 -3.211,4.452 -1.266,1.248 -2.656,2.269 -4.174,3.061 -1.518,0.793 -3.129,1.383 -4.831,1.771 -1.704,0.387 -3.433,0.582 -5.187,0.582 -2.361,0 -4.553,-0.347 -6.576,-1.037 -2.023,-0.691 -3.769,-1.669 -5.236,-2.935 -1.466,-1.264 -2.613,-2.781 -3.438,-4.553 -0.827,-1.771 -1.241,-3.752 -1.241,-5.943 0,-3.069 0.642,-5.7 1.924,-7.893 1.28,-2.192 3.143,-3.979 5.59,-5.363 2.445,-1.382 5.43,-2.394 8.954,-3.035 3.523,-0.64 7.546,-0.96 12.065,-0.96 h 4.856 v -2.176 z m -0.05,9.714 c -2.294,-0.067 -4.57,-0.033 -6.83,0.101 -2.261,0.136 -4.283,0.498 -6.07,1.088 -1.789,0.591 -3.23,1.46 -4.326,2.605 -1.097,1.146 -1.645,2.698 -1.645,4.654 0,1.079 0.203,2.057 0.607,2.935 0.405,0.877 0.969,1.636 1.695,2.276 0.725,0.641 1.584,1.131 2.58,1.467 0.993,0.337 2.1,0.506 3.313,0.506 1.551,0 2.977,-0.278 4.274,-0.835 1.297,-0.557 2.42,-1.365 3.365,-2.428 0.943,-1.062 1.686,-2.36 2.225,-3.896 0.539,-1.534 0.811,-3.297 0.811,-5.287 v -3.186 z"
             id="path4491" />
          <path
             style="fill:#228bcb"
             inkscape:connector-curvature="0"
             d="m 642.514,435.921 c 0,1.315 0.574,2.337 1.721,3.061 1.146,0.727 2.731,1.324 4.756,1.796 1.922,0.439 3.896,0.86 5.918,1.266 2.024,0.404 3.998,0.868 5.919,1.391 1.924,0.523 3.728,1.139 5.414,1.846 1.687,0.709 3.169,1.595 4.452,2.657 1.28,1.062 2.293,2.344 3.035,3.844 0.742,1.502 1.112,3.297 1.112,5.389 0,2.63 -0.54,4.966 -1.619,7.006 -1.079,2.042 -2.604,3.77 -4.577,5.186 -1.974,1.416 -4.326,2.513 -7.058,3.289 -2.733,0.775 -5.751,1.18 -9.056,1.214 -3.137,0 -6.155,-0.195 -9.056,-0.582 -2.9,-0.388 -5.473,-0.986 -7.715,-1.796 -2.243,-0.81 -4.038,-1.812 -5.388,-3.01 -1.35,-1.196 -2.023,-2.605 -2.023,-4.225 0,-1.416 0.455,-2.513 1.365,-3.288 0.91,-0.776 2.074,-1.164 3.49,-1.164 0.54,0 1.182,0.102 1.924,0.304 0.74,0.203 1.55,0.455 2.428,0.759 0.877,0.304 1.812,0.633 2.809,0.986 0.993,0.354 2.031,0.667 3.11,0.937 1.349,0.372 2.739,0.667 4.173,0.886 1.435,0.219 2.91,0.328 4.428,0.328 0.943,0 1.871,-0.092 2.782,-0.278 0.911,-0.185 1.728,-0.472 2.454,-0.86 0.725,-0.387 1.322,-0.885 1.797,-1.491 0.471,-0.607 0.758,-1.349 0.858,-2.227 0.101,-0.202 0.185,-0.405 0.252,-0.606 0.069,-0.203 0.103,-0.438 0.103,-0.709 0,-0.943 -0.43,-1.787 -1.289,-2.529 -0.861,-0.742 -2.067,-1.332 -3.618,-1.771 -2.599,-0.606 -5.076,-1.162 -7.437,-1.669 -2.361,-0.506 -4.545,-1.045 -6.551,-1.618 -2.008,-0.574 -3.828,-1.23 -5.464,-1.974 -1.638,-0.74 -3.019,-1.652 -4.148,-2.731 -1.131,-1.078 -2.007,-2.378 -2.632,-3.896 -0.623,-1.518 -0.935,-3.355 -0.935,-5.515 0,-2.326 0.531,-4.408 1.593,-6.248 1.062,-1.837 2.588,-3.38 4.578,-4.628 1.989,-1.247 4.401,-2.2 7.234,-2.859 2.834,-0.657 6.036,-0.986 9.612,-0.986 6.407,0 11.288,0.768 14.646,2.303 3.355,1.534 5.033,3.533 5.033,5.995 0,1.383 -0.455,2.437 -1.365,3.161 -0.911,0.726 -2.008,1.088 -3.289,1.088 -0.674,0 -1.374,-0.126 -2.099,-0.379 -0.728,-0.254 -1.593,-0.54 -2.605,-0.86 -1.012,-0.32 -2.219,-0.607 -3.618,-0.86 -1.398,-0.253 -3.129,-0.38 -5.185,-0.38 -1.552,0 -2.96,0.068 -4.225,0.203 -1.265,0.135 -2.345,0.371 -3.237,0.707 -0.895,0.338 -1.586,0.794 -2.074,1.367 -0.489,0.569 -0.733,1.294 -0.733,2.17 z"
             id="path4493" />
          <path
             style="fill:#228bcb"
             inkscape:connector-curvature="0"
             d="m 696.695,435.921 c 0,1.315 0.574,2.337 1.72,3.061 1.147,0.727 2.733,1.324 4.756,1.796 1.923,0.439 3.896,0.86 5.919,1.266 2.023,0.404 3.996,0.868 5.919,1.391 1.923,0.523 3.727,1.139 5.413,1.846 1.687,0.709 3.17,1.595 4.452,2.657 1.281,1.062 2.294,2.344 3.035,3.844 0.741,1.502 1.114,3.297 1.114,5.389 0,2.63 -0.541,4.966 -1.619,7.006 -1.081,2.042 -2.605,3.77 -4.579,5.186 -1.973,1.416 -4.325,2.513 -7.056,3.289 -2.733,0.775 -5.752,1.18 -9.057,1.214 -3.137,0 -6.156,-0.195 -9.057,-0.582 -2.9,-0.388 -5.472,-0.986 -7.715,-1.796 -2.242,-0.81 -4.039,-1.812 -5.387,-3.01 -1.35,-1.196 -2.024,-2.605 -2.024,-4.225 0,-1.416 0.455,-2.513 1.366,-3.288 0.911,-0.776 2.075,-1.164 3.49,-1.164 0.541,0 1.182,0.102 1.924,0.304 0.741,0.203 1.55,0.455 2.428,0.759 0.876,0.304 1.812,0.633 2.807,0.986 0.996,0.354 2.032,0.667 3.111,0.937 1.349,0.372 2.74,0.667 4.175,0.886 1.433,0.219 2.909,0.328 4.427,0.328 0.943,0 1.872,-0.092 2.783,-0.278 0.91,-0.185 1.728,-0.472 2.451,-0.86 0.725,-0.387 1.324,-0.885 1.797,-1.491 0.473,-0.607 0.76,-1.349 0.859,-2.227 0.102,-0.202 0.186,-0.405 0.254,-0.606 0.066,-0.203 0.102,-0.438 0.102,-0.709 0,-0.943 -0.432,-1.787 -1.291,-2.529 -0.859,-0.742 -2.064,-1.332 -3.617,-1.771 -2.597,-0.606 -5.076,-1.162 -7.436,-1.669 -2.362,-0.506 -4.545,-1.045 -6.553,-1.618 -2.007,-0.574 -3.828,-1.23 -5.463,-1.974 -1.637,-0.74 -3.018,-1.652 -4.148,-2.731 -1.131,-1.078 -2.008,-2.378 -2.631,-3.896 -0.625,-1.518 -0.936,-3.355 -0.936,-5.515 0,-2.326 0.531,-4.408 1.594,-6.248 1.062,-1.837 2.588,-3.38 4.578,-4.628 1.99,-1.247 4.402,-2.2 7.234,-2.859 2.834,-0.657 6.037,-0.986 9.611,-0.986 6.408,0 11.289,0.768 14.646,2.303 3.355,1.534 5.032,3.533 5.032,5.995 0,1.383 -0.455,2.437 -1.366,3.161 -0.91,0.726 -2.006,1.088 -3.287,1.088 -0.675,0 -1.375,-0.126 -2.1,-0.379 -0.726,-0.254 -1.594,-0.54 -2.604,-0.86 -1.014,-0.32 -2.219,-0.607 -3.618,-0.86 -1.399,-0.253 -3.13,-0.38 -5.187,-0.38 -1.552,0 -2.959,0.068 -4.224,0.203 -1.265,0.135 -2.345,0.371 -3.237,0.707 -0.895,0.338 -1.586,0.794 -2.075,1.367 -0.489,0.573 -0.73,1.294 -0.73,2.17 z"
             id="path4495" />
          <path
             style="fill:#228bcb"
             inkscape:connector-curvature="0"
             d="m 768.127,439.968 c 0,-2.833 -0.75,-4.839 -2.25,-6.02 -1.502,-1.18 -3.518,-1.771 -6.046,-1.771 -1.518,0 -2.935,0.084 -4.249,0.253 -1.316,0.169 -2.555,0.38 -3.719,0.633 -1.164,0.252 -2.268,0.514 -3.313,0.783 -1.046,0.271 -2.041,0.523 -2.985,0.759 -0.776,0.203 -1.467,0.304 -2.074,0.304 -1.113,0 -2.117,-0.361 -3.01,-1.087 -0.894,-0.726 -1.34,-1.729 -1.34,-3.011 0,-1.247 0.318,-2.344 0.96,-3.288 0.642,-0.943 1.511,-1.763 2.605,-2.454 1.096,-0.69 2.37,-1.264 3.819,-1.72 1.449,-0.455 2.977,-0.817 4.578,-1.088 1.603,-0.269 3.246,-0.462 4.934,-0.581 1.686,-0.118 3.305,-0.178 4.856,-0.178 3.237,0 6.204,0.362 8.904,1.088 2.697,0.727 5.015,1.932 6.955,3.617 1.939,1.688 3.457,3.896 4.554,6.627 1.094,2.732 1.644,6.088 1.644,10.068 v 20.235 c 0,1.314 -0.085,2.58 -0.253,3.794 -0.17,1.214 -0.506,2.293 -1.012,3.237 -0.506,0.944 -1.232,1.694 -2.176,2.251 -0.944,0.558 -2.193,0.835 -3.743,0.835 -2.429,0 -4.224,-0.8 -5.389,-2.403 -1.163,-1.601 -1.745,-3.886 -1.745,-6.854 -0.877,1.721 -1.947,3.205 -3.211,4.452 -1.266,1.248 -2.656,2.269 -4.174,3.061 -1.519,0.793 -3.129,1.383 -4.832,1.771 -1.703,0.387 -3.432,0.582 -5.186,0.582 -2.361,0 -4.553,-0.347 -6.577,-1.037 -2.022,-0.691 -3.769,-1.669 -5.235,-2.935 -1.467,-1.264 -2.614,-2.781 -3.439,-4.553 -0.826,-1.771 -1.24,-3.752 -1.24,-5.943 0,-3.069 0.641,-5.7 1.924,-7.893 1.279,-2.192 3.143,-3.979 5.589,-5.363 2.445,-1.382 5.431,-2.394 8.954,-3.035 3.523,-0.64 7.547,-0.96 12.066,-0.96 h 4.855 v -2.176 z m -0.05,9.714 c -2.294,-0.067 -4.569,-0.033 -6.829,0.101 -2.262,0.136 -4.284,0.498 -6.071,1.088 -1.788,0.591 -3.229,1.46 -4.326,2.605 -1.097,1.146 -1.644,2.698 -1.644,4.654 0,1.079 0.202,2.057 0.607,2.935 0.404,0.877 0.969,1.636 1.695,2.276 0.725,0.641 1.584,1.131 2.579,1.467 0.993,0.337 2.101,0.506 3.313,0.506 1.551,0 2.977,-0.278 4.274,-0.835 1.297,-0.557 2.421,-1.365 3.365,-2.428 0.944,-1.063 1.687,-2.36 2.226,-3.896 0.539,-1.534 0.81,-3.297 0.81,-5.287 v -3.186 z"
             id="path4497" />
          <path
             style="fill:#228bcb"
             inkscape:connector-curvature="0"
             d="m 857.771,439.968 c 0,-2.833 -0.75,-4.839 -2.25,-6.02 -1.502,-1.18 -3.518,-1.771 -6.046,-1.771 -1.518,0 -2.935,0.084 -4.249,0.253 -1.316,0.169 -2.556,0.38 -3.719,0.633 -1.164,0.252 -2.268,0.514 -3.313,0.783 -1.046,0.271 -2.041,0.523 -2.985,0.759 -0.776,0.203 -1.467,0.304 -2.074,0.304 -1.113,0 -2.117,-0.361 -3.01,-1.087 -0.895,-0.726 -1.34,-1.729 -1.34,-3.011 0,-1.247 0.318,-2.344 0.96,-3.288 0.642,-0.943 1.511,-1.763 2.605,-2.454 1.095,-0.69 2.37,-1.264 3.819,-1.72 1.449,-0.455 2.977,-0.817 4.578,-1.088 1.603,-0.269 3.246,-0.462 4.934,-0.581 1.686,-0.118 3.305,-0.178 4.855,-0.178 3.238,0 6.205,0.362 8.905,1.088 2.697,0.727 5.015,1.932 6.954,3.617 1.94,1.688 3.458,3.896 4.555,6.627 1.094,2.732 1.644,6.088 1.644,10.068 v 20.235 c 0,1.314 -0.085,2.58 -0.253,3.794 -0.17,1.214 -0.506,2.293 -1.012,3.237 -0.506,0.944 -1.232,1.694 -2.176,2.251 -0.945,0.558 -2.193,0.835 -3.744,0.835 -2.428,0 -4.223,-0.8 -5.388,-2.403 -1.163,-1.601 -1.745,-3.886 -1.745,-6.854 -0.877,1.721 -1.947,3.205 -3.211,4.452 -1.266,1.248 -2.656,2.269 -4.174,3.061 -1.519,0.793 -3.129,1.383 -4.832,1.771 -1.703,0.387 -3.432,0.582 -5.186,0.582 -2.361,0 -4.553,-0.347 -6.577,-1.037 -2.022,-0.691 -3.769,-1.669 -5.235,-2.935 -1.467,-1.264 -2.614,-2.781 -3.439,-4.553 -0.827,-1.771 -1.24,-3.752 -1.24,-5.943 0,-3.069 0.641,-5.7 1.924,-7.893 1.279,-2.192 3.143,-3.979 5.589,-5.363 2.445,-1.382 5.431,-2.394 8.954,-3.035 3.523,-0.64 7.547,-0.96 12.066,-0.96 h 4.855 v -2.176 z m -0.049,9.714 c -2.294,-0.067 -4.569,-0.033 -6.829,0.101 -2.262,0.136 -4.285,0.498 -6.071,1.088 -1.788,0.591 -3.229,1.46 -4.326,2.605 -1.097,1.146 -1.644,2.698 -1.644,4.654 0,1.079 0.202,2.057 0.607,2.935 0.404,0.877 0.969,1.636 1.695,2.276 0.724,0.641 1.584,1.131 2.579,1.467 0.993,0.337 2.101,0.506 3.313,0.506 1.551,0 2.977,-0.278 4.273,-0.835 1.299,-0.557 2.422,-1.365 3.366,-2.428 0.943,-1.062 1.687,-2.36 2.226,-3.896 0.539,-1.534 0.81,-3.297 0.81,-5.287 v -3.186 z"
             id="path4499" />
          <path
             style="fill:#228bcb"
             inkscape:connector-curvature="0"
             d="m 886.91,415.635 c -0.775,0.675 -1.686,1.013 -2.73,1.013 -0.878,0 -1.695,-0.295 -2.454,-0.887 -0.759,-0.59 -1.138,-1.424 -1.138,-2.504 0,-0.505 0.127,-0.969 0.379,-1.391 0.252,-0.422 0.531,-0.868 0.834,-1.341 l 10.068,-14.569 c 0.74,-1.079 1.543,-1.981 2.402,-2.707 0.859,-0.725 1.829,-1.088 2.908,-1.088 0.811,0 1.621,0.17 2.43,0.507 0.809,0.336 1.551,0.793 2.227,1.365 0.672,0.574 1.221,1.257 1.643,2.049 0.422,0.793 0.633,1.644 0.633,2.555 -0.034,1.552 -0.811,2.969 -2.328,4.25 z m -2.428,14.316 c 0,-1.247 0.219,-2.368 0.658,-3.364 0.438,-0.993 1.027,-1.828 1.77,-2.504 0.742,-0.674 1.603,-1.188 2.582,-1.543 0.977,-0.354 2.022,-0.531 3.135,-0.531 5.363,0 8.045,3.626 8.045,10.877 v 29.544 c 0,1.518 -0.144,2.934 -0.43,4.25 -0.288,1.315 -0.752,2.462 -1.393,3.439 -0.641,0.979 -1.484,1.745 -2.529,2.302 -1.045,0.558 -2.311,0.835 -3.793,0.835 -2.732,0 -4.756,-0.901 -6.072,-2.707 -1.314,-1.803 -1.973,-4.51 -1.973,-8.119 z"
             id="path4501" />
        </g>
      </g>
    </g>
    <g
       id="g4525"
       transform="matrix(0.54450796,0,0,0.54450796,49.908821,-134.10364)">
      <g
         id="g4523">
        <g
           id="g4521">
          <path
             style="fill:#228bcb"
             inkscape:connector-curvature="0"
             d="m 166.522,431.434 c -8.583,-26.624 -13.566,-40.797 -16.45,-48.346 v 100.844 l 34.309,5.912 c -0.005,-0.324 -0.055,-0.829 -0.228,-1.581 -0.587,-2.542 -8.934,-29.849 -17.631,-56.829 z"
             id="path4509" />
          <path
             style="fill:#228bcb"
             inkscape:connector-curvature="0"
             d="m 192.872,382.605 c -2.627,0 -21.131,2.092 -28.039,2.896 l -0.245,0.012 c -1.162,0.013 -2.329,0.426 -2.472,0.695 l -0.993,15.331 c 2.442,7.188 5.396,16.109 8.979,27.205 6.586,20.396 12.998,41.073 16.164,51.619 1.096,-13.974 7.527,-93.056 7.815,-96.602 -0.065,-1.156 -0.865,-1.156 -1.209,-1.156 z"
             id="path4511" />
          <path
             style="fill:#228bcb"
             inkscape:connector-curvature="0"
             d="m 145.371,374.16 c -3.415,1.274 -33.181,6.564 -36.563,7.162 l -0.045,0.011 c -0.212,0.159 -1.288,1.179 -1.531,5.452 v 95.312 l -0.017,0.131 c 0.003,0.019 -0.069,2.115 3.195,4.195 4.229,2.688 31.125,17.284 34.124,18.909 0.065,0.006 0.15,0.015 0.246,0.015 0.273,0 0.472,-0.058 0.592,-0.173 0.109,-0.104 0.468,-0.556 0.468,-1.994 V 375.498 c -0.006,-0.478 -0.139,-1.104 -0.287,-1.398 -0.047,0.011 -0.109,0.033 -0.182,0.06 z m -21.543,115.045 c -1.726,0 -3.119,-1.952 -3.119,-4.368 0,-2.407 1.394,-4.364 3.119,-4.364 1.725,0 3.118,1.957 3.118,4.364 0,2.416 -1.392,4.368 -3.118,4.368 z m 16.617,-4.443 -29.153,-15.569 0.859,-81.54 28.998,-5.549 z"
             id="path4513" />
          <polygon
             style="fill:#228bcb"
             points="116.346,391.159 115.551,466.672 136.26,477.729 136.88,387.227 "
             id="polygon4515" />
          <path
             style="fill:#228bcb"
             inkscape:connector-curvature="0"
             d="M 157.969,328.543 65.578,381.88 v 106.669 l 92.391,53.338 92.384,-53.338 V 381.88 Z M 222.101,481.8 c -0.661,0.577 -1.452,0.786 -2.179,0.786 -0.384,0 -0.749,-0.059 -1.069,-0.151 l -28.118,-4.872 c -0.147,1.846 -0.261,3.266 -0.329,4.156 -0.317,4.083 -1.211,7.903 -1.994,9.742 -0.192,0.688 -0.537,1.345 -1.134,1.867 -0.729,0.636 -1.604,0.863 -2.408,0.863 -0.451,0.003 -0.88,-0.067 -1.248,-0.184 l -33.55,-5.783 v 14.956 c 0,2.231 -0.603,3.938 -1.785,5.062 -0.918,0.879 -2.132,1.338 -3.506,1.338 -0.001,0 -0.001,0 -0.001,0 -0.837,0 -1.476,-0.179 -1.594,-0.215 l -0.399,-0.162 c -1.226,-0.665 -30.065,-16.292 -34.65,-19.209 -5.115,-3.263 -5.201,-7.158 -5.137,-8.113 V 386.61 c 0.456,-8.297 3.971,-9.354 5.177,-9.474 13.135,-2.327 33.406,-6.081 35.709,-6.942 0.618,-0.229 1.228,-0.351 1.803,-0.351 1.248,0 2.21,0.511 2.914,1.293 0.072,0.037 0.148,0.064 0.219,0.106 0.815,0.502 2.117,1.3 8.734,19.987 l 0.372,-5.683 c 0.552,-3.304 4.301,-4.231 6.525,-4.266 3.053,-0.355 25.111,-2.91 28.417,-2.91 2.23,0 3.669,1.016 4.503,2.295 l 0.069,-0.043 c 2.468,3.949 25.373,95.192 25.577,96.065 0.207,0.891 0.828,3.581 -0.918,5.113 z"
             id="path4517" />
          <path
             style="fill:#228bcb"
             inkscape:connector-curvature="0"
             d="m 197.428,394.844 c -1.583,19.483 -4.878,60.055 -6.354,78.484 l 27.929,4.836 c -0.025,-0.148 -0.058,-0.321 -0.103,-0.519 -0.919,-3.956 -14.656,-58.064 -21.472,-82.801 z"
             id="path4519" />
        </g>
      </g>
    </g>
  </g>
</svg>
